<svg xmlns="http://www.w3.org/2000/svg" xmlns:xlink="http://www.w3.org/1999/xlink" version="1.1" width="256" height="256" viewBox="0 0 256 256" xml:space="preserve">
<g style="stroke: none; stroke-width: 0; stroke-dasharray: none; stroke-linecap: butt; stroke-linejoin: miter; stroke-miterlimit: 10; fill: none; fill-rule: nonzero; opacity: 1;" transform="translate(1.4065934065934016 1.4065934065934016) scale(2.81 2.81)">
	<path d="M 88 43 h -9.008 c -0.759 -13.205 -8.973 -24.711 -21.385 -29.659 c -1.023 -0.408 -2.189 0.092 -2.598 1.117 c -0.409 1.026 0.091 2.189 1.117 2.599 C 67.633 21.644 75.067 32.612 75.067 45 c 0 5.45 -1.448 10.717 -4.207 15.35 l -5.748 -3.952 c 1.945 -3.432 3.024 -7.354 3.024 -11.398 c 0 -7.37 -3.391 -14.129 -9.302 -18.545 c -0.425 -0.318 -0.959 -0.454 -1.484 -0.377 c -0.525 0.076 -0.999 0.358 -1.316 0.783 l -5.451 7.308 c -1.723 -0.902 -3.633 -1.373 -5.618 -1.373 c -6.038 0 -11.048 4.427 -11.989 10.204 h -9.112 c -1.104 0 -2 0.896 -2 2 c 0 7.723 3.808 14.569 9.64 18.774 l -4.384 7.857 c -0.287 0.458 -0.375 1.013 -0.246 1.537 c 0.129 0.525 0.465 0.976 0.931 1.248 c 5.195 3.043 11.141 4.651 17.194 4.651 c 6.595 0 12.994 -1.888 18.505 -5.458 c 0.927 -0.601 1.191 -1.839 0.591 -2.767 c -0.602 -0.927 -1.841 -1.192 -2.767 -0.591 c -4.861 3.15 -10.508 4.815 -16.329 4.815 c -4.685 0 -9.296 -1.091 -13.451 -3.169 l 3.388 -6.069 c 3.044 1.477 6.458 2.306 10.063 2.306 c 1.104 0 2 -0.896 2 -2 s -0.896 -2 -2 -2 c -9.876 0 -18.028 -7.521 -19.032 -17.136 h 7.021 c 0.976 5.735 5.967 10.119 11.976 10.119 c 5.751 0 10.762 -4.085 11.914 -9.712 c 0.222 -1.082 -0.476 -2.139 -1.558 -2.361 c -1.089 -0.225 -2.14 0.476 -2.36 1.558 c -0.773 3.774 -4.136 6.515 -7.996 6.515 c -4.5 0 -8.162 -3.661 -8.162 -8.161 c 0 -4.5 3.661 -8.162 8.162 -8.162 c 1.79 0 3.489 0.568 4.913 1.644 c 0.882 0.667 2.137 0.49 2.801 -0.39 c 0.004 -0.006 0.007 -0.012 0.011 -0.018 c 0.004 -0.006 0.01 -0.01 0.015 -0.016 l 5.278 -7.078 c 3.934 3.616 6.153 8.639 6.153 14.062 c 0 6.706 -3.583 13.009 -9.351 16.448 c -0.948 0.565 -1.259 1.793 -0.693 2.742 c 0.374 0.628 1.038 0.976 1.72 0.976 c 0.349 0 0.701 -0.091 1.022 -0.282 c 2.318 -1.382 4.336 -3.154 6.008 -5.192 l 7.452 5.123 c 0.076 0.052 0.157 0.1 0.24 0.142 c 0.286 0.143 0.592 0.211 0.894 0.211 c 0.64 0 1.264 -0.308 1.648 -0.865 c 3.54 -5.141 5.557 -11.088 5.917 -17.302 h 6.957 C 84.902 68.682 66.937 86 45 86 c -15.305 0 -28.67 -8.436 -35.712 -20.896 l 6.235 -3.015 c 0.829 1.421 1.76 2.794 2.804 4.107 c 0.395 0.496 0.978 0.755 1.566 0.755 c 0.436 0 0.876 -0.143 1.244 -0.435 c 0.864 -0.688 1.008 -1.946 0.32 -2.811 C 17.188 58.34 14.932 51.872 14.932 45 c 0 -15.908 12.417 -28.97 28.068 -30.002 v 6.953 c -7.637 0.662 -14.512 5.086 -18.264 11.877 c -0.534 0.967 -0.184 2.184 0.783 2.718 c 0.967 0.535 2.185 0.184 2.718 -0.783 c 3.373 -6.105 9.796 -9.898 16.763 -9.898 c 1.104 0 2 -0.896 2 -2 V 12.932 c 0 -1.104 -0.896 -2 -2 -2 c -18.785 0 -34.068 15.283 -34.068 34.068 c 0 4.736 0.952 9.301 2.781 13.52 l -6.222 3.009 C 5.253 56.469 4 50.88 4 45 C 4 22.393 22.393 4 45 4 c 18.062 0 33.798 11.577 39.156 28.807 c 0.328 1.055 1.453 1.643 2.504 1.315 c 1.055 -0.328 1.645 -1.449 1.316 -2.504 C 82.094 12.707 64.823 0 45 0 C 20.187 0 0 20.187 0 45 c 0 7.164 1.691 13.938 4.682 19.956 C 4.7 65 4.709 65.044 4.73 65.087 c 0.021 0.044 0.056 0.077 0.08 0.119 C 12.226 79.896 27.451 90 45 90 c 24.813 0 45 -20.187 45 -45 C 90 43.896 89.104 43 88 43 z" style="stroke: none; stroke-width: 1; stroke-dasharray: none; stroke-linecap: butt; stroke-linejoin: miter; stroke-miterlimit: 10; fill: rgb(57,201,49); fill-rule: nonzero; opacity: 1;" transform=" matrix(1 0 0 1 0 0) " stroke-linecap="round"/>
</g>
</svg>